<mxfile host="app.diagrams.net" modified="2022-07-14T00:37:32.251Z" agent="5.0 (Windows NT 10.0; Win64; x64) AppleWebKit/537.36 (KHTML, like Gecko) Chrome/103.0.0.0 Safari/537.36" etag="krNAaVx9-AqitU7mMufP" version="20.1.1" type="github">
  <diagram id="JDbjzZjRQLVRVQ9Avx7f" name="Page-1">
    <mxGraphModel dx="1422" dy="762" grid="1" gridSize="10" guides="1" tooltips="1" connect="1" arrows="1" fold="1" page="1" pageScale="1" pageWidth="827" pageHeight="1169" math="0" shadow="0">
      <root>
        <mxCell id="0" />
        <mxCell id="1" parent="0" />
        <mxCell id="zyb1vxMaMhKt3eVz_rQT-1" value="8KB" style="rounded=0;whiteSpace=wrap;html=1;fillColor=#d5e8d4;strokeColor=#82b366;" parent="1" vertex="1">
          <mxGeometry x="140" y="150" width="100" height="30" as="geometry" />
        </mxCell>
        <mxCell id="zyb1vxMaMhKt3eVz_rQT-2" value="8KB" style="rounded=0;whiteSpace=wrap;html=1;" parent="1" vertex="1">
          <mxGeometry x="240" y="150" width="100" height="30" as="geometry" />
        </mxCell>
        <mxCell id="zyb1vxMaMhKt3eVz_rQT-3" value="8KB" style="rounded=0;whiteSpace=wrap;html=1;" parent="1" vertex="1">
          <mxGeometry x="340" y="150" width="100" height="30" as="geometry" />
        </mxCell>
        <mxCell id="zyb1vxMaMhKt3eVz_rQT-31" value="" style="edgeStyle=orthogonalEdgeStyle;rounded=0;orthogonalLoop=1;jettySize=auto;html=1;" parent="1" source="zyb1vxMaMhKt3eVz_rQT-4" edge="1">
          <mxGeometry relative="1" as="geometry">
            <mxPoint x="540" y="220" as="targetPoint" />
            <Array as="points">
              <mxPoint x="580" y="165" />
              <mxPoint x="580" y="200" />
              <mxPoint x="540" y="200" />
            </Array>
          </mxGeometry>
        </mxCell>
        <mxCell id="zyb1vxMaMhKt3eVz_rQT-4" value="8KB" style="rounded=0;whiteSpace=wrap;html=1;" parent="1" vertex="1">
          <mxGeometry x="440" y="150" width="100" height="30" as="geometry" />
        </mxCell>
        <mxCell id="zyb1vxMaMhKt3eVz_rQT-5" value="" style="shape=curlyBracket;whiteSpace=wrap;html=1;rounded=1;rotation=90;" parent="1" vertex="1">
          <mxGeometry x="325" y="-75" width="20" height="390" as="geometry" />
        </mxCell>
        <mxCell id="zyb1vxMaMhKt3eVz_rQT-6" value="32KB原始数据 需要5个包进行传输 ，每个包8KB包含报文头(16Byte)和报文体(8176byte)" style="text;html=1;align=center;verticalAlign=middle;resizable=0;points=[];autosize=1;strokeColor=none;fillColor=none;" parent="1" vertex="1">
          <mxGeometry x="85" y="75" width="490" height="30" as="geometry" />
        </mxCell>
        <mxCell id="zyb1vxMaMhKt3eVz_rQT-8" value="SM3 Max数据包" style="text;html=1;align=center;verticalAlign=middle;resizable=0;points=[];autosize=1;strokeColor=none;fillColor=none;" parent="1" vertex="1">
          <mxGeometry x="130" y="130" width="110" height="30" as="geometry" />
        </mxCell>
        <mxCell id="zyb1vxMaMhKt3eVz_rQT-10" value="UserSpace" style="text;html=1;align=center;verticalAlign=middle;resizable=0;points=[];autosize=1;strokeColor=none;fillColor=none;" parent="1" vertex="1">
          <mxGeometry x="40" y="135" width="80" height="30" as="geometry" />
        </mxCell>
        <mxCell id="zyb1vxMaMhKt3eVz_rQT-11" value="" style="endArrow=none;dashed=1;html=1;rounded=0;" parent="1" edge="1">
          <mxGeometry width="50" height="50" relative="1" as="geometry">
            <mxPoint x="40" y="440" as="sourcePoint" />
            <mxPoint x="800" y="440" as="targetPoint" />
          </mxGeometry>
        </mxCell>
        <mxCell id="zyb1vxMaMhKt3eVz_rQT-16" style="edgeStyle=orthogonalEdgeStyle;rounded=0;orthogonalLoop=1;jettySize=auto;html=1;exitX=0.5;exitY=1;exitDx=0;exitDy=0;" parent="1" source="zyb1vxMaMhKt3eVz_rQT-13" edge="1">
          <mxGeometry relative="1" as="geometry">
            <mxPoint x="240" y="220" as="targetPoint" />
          </mxGeometry>
        </mxCell>
        <mxCell id="zyb1vxMaMhKt3eVz_rQT-13" value="8KB" style="rounded=0;whiteSpace=wrap;html=1;fillColor=#d5e8d4;strokeColor=#82b366;" parent="1" vertex="1">
          <mxGeometry x="140" y="150" width="100" height="30" as="geometry" />
        </mxCell>
        <mxCell id="zyb1vxMaMhKt3eVz_rQT-24" style="edgeStyle=orthogonalEdgeStyle;rounded=0;orthogonalLoop=1;jettySize=auto;html=1;exitX=0.5;exitY=1;exitDx=0;exitDy=0;entryX=1;entryY=0;entryDx=0;entryDy=0;" parent="1" source="zyb1vxMaMhKt3eVz_rQT-14" target="zyb1vxMaMhKt3eVz_rQT-21" edge="1">
          <mxGeometry relative="1" as="geometry" />
        </mxCell>
        <mxCell id="zyb1vxMaMhKt3eVz_rQT-14" value="Header(16byte)" style="rounded=0;whiteSpace=wrap;html=1;fillColor=#d5e8d4;strokeColor=#82b366;" parent="1" vertex="1">
          <mxGeometry x="139" y="222" width="100" height="30" as="geometry" />
        </mxCell>
        <mxCell id="zyb1vxMaMhKt3eVz_rQT-15" value="BODY(8176 byte)" style="rounded=0;whiteSpace=wrap;html=1;fillColor=#d5e8d4;strokeColor=#82b366;" parent="1" vertex="1">
          <mxGeometry x="239" y="222" width="100" height="30" as="geometry" />
        </mxCell>
        <mxCell id="zyb1vxMaMhKt3eVz_rQT-17" value="reserved" style="rounded=0;whiteSpace=wrap;html=1;fillColor=#d5e8d4;strokeColor=#82b366;" parent="1" vertex="1">
          <mxGeometry x="139" y="332" width="71" height="30" as="geometry" />
        </mxCell>
        <mxCell id="zyb1vxMaMhKt3eVz_rQT-21" value="oper(update)" style="rounded=0;whiteSpace=wrap;html=1;fillColor=#d5e8d4;strokeColor=#82b366;" parent="1" vertex="1">
          <mxGeometry x="210" y="332" width="71" height="30" as="geometry" />
        </mxCell>
        <mxCell id="zyb1vxMaMhKt3eVz_rQT-36" style="edgeStyle=orthogonalEdgeStyle;rounded=0;orthogonalLoop=1;jettySize=auto;html=1;exitX=0;exitY=1;exitDx=0;exitDy=0;entryX=0;entryY=0;entryDx=0;entryDy=0;" parent="1" source="zyb1vxMaMhKt3eVz_rQT-22" target="zyb1vxMaMhKt3eVz_rQT-35" edge="1">
          <mxGeometry relative="1" as="geometry" />
        </mxCell>
        <mxCell id="zyb1vxMaMhKt3eVz_rQT-22" value="user_id" style="rounded=0;whiteSpace=wrap;html=1;fillColor=#d5e8d4;strokeColor=#82b366;" parent="1" vertex="1">
          <mxGeometry x="281" y="332" width="71" height="30" as="geometry" />
        </mxCell>
        <mxCell id="zyb1vxMaMhKt3eVz_rQT-23" value="cmd_type" style="rounded=0;whiteSpace=wrap;html=1;fillColor=#d5e8d4;strokeColor=#82b366;" parent="1" vertex="1">
          <mxGeometry x="352" y="332" width="71" height="30" as="geometry" />
        </mxCell>
        <mxCell id="zyb1vxMaMhKt3eVz_rQT-32" value="" style="edgeStyle=orthogonalEdgeStyle;rounded=0;orthogonalLoop=1;jettySize=auto;html=1;" parent="1" source="zyb1vxMaMhKt3eVz_rQT-25" target="zyb1vxMaMhKt3eVz_rQT-28" edge="1">
          <mxGeometry relative="1" as="geometry" />
        </mxCell>
        <mxCell id="zyb1vxMaMhKt3eVz_rQT-25" value="Header(16byte)" style="rounded=0;whiteSpace=wrap;html=1;fillColor=#f8cecc;strokeColor=#b85450;" parent="1" vertex="1">
          <mxGeometry x="440" y="222" width="100" height="30" as="geometry" />
        </mxCell>
        <mxCell id="zyb1vxMaMhKt3eVz_rQT-26" value="BODY(64byte)" style="rounded=0;whiteSpace=wrap;html=1;fillColor=#f8cecc;strokeColor=#b85450;" parent="1" vertex="1">
          <mxGeometry x="540" y="222" width="100" height="30" as="geometry" />
        </mxCell>
        <mxCell id="zyb1vxMaMhKt3eVz_rQT-27" value="reserved" style="rounded=0;whiteSpace=wrap;html=1;fillColor=#f8cecc;strokeColor=#b85450;" parent="1" vertex="1">
          <mxGeometry x="440" y="332" width="71" height="30" as="geometry" />
        </mxCell>
        <mxCell id="zyb1vxMaMhKt3eVz_rQT-39" style="edgeStyle=orthogonalEdgeStyle;rounded=0;orthogonalLoop=1;jettySize=auto;html=1;exitX=0.75;exitY=1;exitDx=0;exitDy=0;entryX=0.5;entryY=0;entryDx=0;entryDy=0;" parent="1" source="zyb1vxMaMhKt3eVz_rQT-28" target="zyb1vxMaMhKt3eVz_rQT-38" edge="1">
          <mxGeometry relative="1" as="geometry" />
        </mxCell>
        <mxCell id="zyb1vxMaMhKt3eVz_rQT-28" value="oper(final)" style="rounded=0;whiteSpace=wrap;html=1;fillColor=#f8cecc;strokeColor=#b85450;" parent="1" vertex="1">
          <mxGeometry x="511" y="332" width="71" height="30" as="geometry" />
        </mxCell>
        <mxCell id="zyb1vxMaMhKt3eVz_rQT-29" value="user_id" style="rounded=0;whiteSpace=wrap;html=1;fillColor=#f8cecc;strokeColor=#b85450;" parent="1" vertex="1">
          <mxGeometry x="582" y="332" width="71" height="30" as="geometry" />
        </mxCell>
        <mxCell id="zyb1vxMaMhKt3eVz_rQT-30" value="cmd_type" style="rounded=0;whiteSpace=wrap;html=1;fillColor=#f8cecc;strokeColor=#b85450;" parent="1" vertex="1">
          <mxGeometry x="653" y="332" width="71" height="30" as="geometry" />
        </mxCell>
        <mxCell id="zyb1vxMaMhKt3eVz_rQT-33" value="Kernel" style="text;html=1;align=center;verticalAlign=middle;resizable=0;points=[];autosize=1;strokeColor=none;fillColor=none;" parent="1" vertex="1">
          <mxGeometry x="50" y="470" width="60" height="30" as="geometry" />
        </mxCell>
        <mxCell id="zyb1vxMaMhKt3eVz_rQT-61" value="" style="edgeStyle=orthogonalEdgeStyle;rounded=0;orthogonalLoop=1;jettySize=auto;html=1;" parent="1" source="zyb1vxMaMhKt3eVz_rQT-34" target="zyb1vxMaMhKt3eVz_rQT-46" edge="1">
          <mxGeometry relative="1" as="geometry" />
        </mxCell>
        <mxCell id="zyb1vxMaMhKt3eVz_rQT-34" value="Page (4KB)" style="rounded=0;whiteSpace=wrap;html=1;fillColor=#dae8fc;strokeColor=#6c8ebf;" parent="1" vertex="1">
          <mxGeometry x="140" y="470" width="100" height="30" as="geometry" />
        </mxCell>
        <mxCell id="zyb1vxMaMhKt3eVz_rQT-35" value="Page(4KB)" style="rounded=0;whiteSpace=wrap;html=1;fillColor=#dae8fc;strokeColor=#6c8ebf;" parent="1" vertex="1">
          <mxGeometry x="239" y="470" width="100" height="30" as="geometry" />
        </mxCell>
        <mxCell id="zyb1vxMaMhKt3eVz_rQT-37" value="80Byte" style="rounded=0;whiteSpace=wrap;html=1;fillColor=#f8cecc;strokeColor=#b85450;" parent="1" vertex="1">
          <mxGeometry x="530" y="150" width="50" height="30" as="geometry" />
        </mxCell>
        <mxCell id="zyb1vxMaMhKt3eVz_rQT-64" style="edgeStyle=orthogonalEdgeStyle;rounded=0;orthogonalLoop=1;jettySize=auto;html=1;entryX=1;entryY=0.5;entryDx=0;entryDy=0;dashed=1;dashPattern=1 1;strokeColor=#FF3333;" parent="1" source="zyb1vxMaMhKt3eVz_rQT-38" target="zyb1vxMaMhKt3eVz_rQT-63" edge="1">
          <mxGeometry relative="1" as="geometry" />
        </mxCell>
        <mxCell id="zyb1vxMaMhKt3eVz_rQT-38" value="Page(80Byte)" style="rounded=0;whiteSpace=wrap;html=1;fillColor=#fad9d5;strokeColor=#ae4132;" parent="1" vertex="1">
          <mxGeometry x="440" y="470" width="100" height="30" as="geometry" />
        </mxCell>
        <mxCell id="zyb1vxMaMhKt3eVz_rQT-40" value="" style="endArrow=none;dashed=1;html=1;rounded=0;" parent="1" edge="1">
          <mxGeometry width="50" height="50" relative="1" as="geometry">
            <mxPoint x="40" y="570" as="sourcePoint" />
            <mxPoint x="800" y="570" as="targetPoint" />
          </mxGeometry>
        </mxCell>
        <mxCell id="zyb1vxMaMhKt3eVz_rQT-41" value="FPGA" style="text;html=1;align=center;verticalAlign=middle;resizable=0;points=[];autosize=1;strokeColor=none;fillColor=none;" parent="1" vertex="1">
          <mxGeometry x="30" y="610" width="60" height="30" as="geometry" />
        </mxCell>
        <mxCell id="zyb1vxMaMhKt3eVz_rQT-60" value="" style="edgeStyle=orthogonalEdgeStyle;rounded=0;orthogonalLoop=1;jettySize=auto;html=1;" parent="1" source="zyb1vxMaMhKt3eVz_rQT-42" target="zyb1vxMaMhKt3eVz_rQT-59" edge="1">
          <mxGeometry relative="1" as="geometry" />
        </mxCell>
        <mxCell id="zyb1vxMaMhKt3eVz_rQT-42" value="AXIS(64Byte)" style="rounded=0;whiteSpace=wrap;html=1;fillColor=#e3c800;strokeColor=#B09500;fontColor=#000000;dashed=1;strokeWidth=2;opacity=60;" parent="1" vertex="1">
          <mxGeometry x="135" y="610" width="75" height="30" as="geometry" />
        </mxCell>
        <mxCell id="zyb1vxMaMhKt3eVz_rQT-46" value="AXIS(64Byte)" style="rounded=0;whiteSpace=wrap;html=1;fillColor=#e3c800;strokeColor=#B09500;fontColor=#000000;dashed=1;strokeWidth=2;opacity=60;" parent="1" vertex="1">
          <mxGeometry x="210" y="610" width="75" height="30" as="geometry" />
        </mxCell>
        <mxCell id="zyb1vxMaMhKt3eVz_rQT-47" value="AXIS(64Byte)" style="rounded=0;whiteSpace=wrap;html=1;fillColor=#e3c800;strokeColor=#B09500;fontColor=#000000;dashed=1;strokeWidth=2;opacity=70;" parent="1" vertex="1">
          <mxGeometry x="285" y="610" width="75" height="30" as="geometry" />
        </mxCell>
        <mxCell id="zyb1vxMaMhKt3eVz_rQT-48" value="AXIS(64Byte)" style="rounded=0;whiteSpace=wrap;html=1;fillColor=#e3c800;strokeColor=#B09500;fontColor=#000000;dashed=1;strokeWidth=2;opacity=70;" parent="1" vertex="1">
          <mxGeometry x="360" y="610" width="75" height="30" as="geometry" />
        </mxCell>
        <mxCell id="zyb1vxMaMhKt3eVz_rQT-53" value="AXIS(64Byte)" style="rounded=0;whiteSpace=wrap;html=1;fillColor=#e3c800;strokeColor=#B09500;fontColor=#000000;dashed=1;strokeWidth=2;opacity=70;" parent="1" vertex="1">
          <mxGeometry x="435" y="610" width="75" height="30" as="geometry" />
        </mxCell>
        <mxCell id="zyb1vxMaMhKt3eVz_rQT-54" value="AXIS(64Byte)" style="rounded=0;whiteSpace=wrap;html=1;fillColor=#e3c800;strokeColor=#B09500;fontColor=#000000;dashed=1;strokeWidth=2;opacity=70;" parent="1" vertex="1">
          <mxGeometry x="510" y="610" width="75" height="30" as="geometry" />
        </mxCell>
        <mxCell id="zyb1vxMaMhKt3eVz_rQT-55" value="AXIS(64Byte)" style="rounded=0;whiteSpace=wrap;html=1;fillColor=#e3c800;strokeColor=#B09500;fontColor=#000000;dashed=1;strokeWidth=2;opacity=70;" parent="1" vertex="1">
          <mxGeometry x="585" y="610" width="75" height="30" as="geometry" />
        </mxCell>
        <mxCell id="zyb1vxMaMhKt3eVz_rQT-58" value="" style="edgeStyle=orthogonalEdgeStyle;rounded=0;orthogonalLoop=1;jettySize=auto;html=1;" parent="1" source="zyb1vxMaMhKt3eVz_rQT-56" target="zyb1vxMaMhKt3eVz_rQT-57" edge="1">
          <mxGeometry relative="1" as="geometry" />
        </mxCell>
        <mxCell id="zyb1vxMaMhKt3eVz_rQT-56" value="AXIS(64Byte)" style="rounded=0;whiteSpace=wrap;html=1;fillColor=#e3c800;strokeColor=#B09500;fontColor=#000000;dashed=1;strokeWidth=2;opacity=70;" parent="1" vertex="1">
          <mxGeometry x="660" y="610" width="75" height="30" as="geometry" />
        </mxCell>
        <mxCell id="zyb1vxMaMhKt3eVz_rQT-57" value="m_axis_h2c_tlast =1" style="rounded=0;whiteSpace=wrap;html=1;dashed=1;strokeWidth=2;opacity=70;fillColor=#b1ddf0;strokeColor=#10739e;" parent="1" vertex="1">
          <mxGeometry x="570" y="690" width="130" height="30" as="geometry" />
        </mxCell>
        <mxCell id="zyb1vxMaMhKt3eVz_rQT-59" value="m_axis_h2c_tdata[95:64] =32&#39;b0 (oper=update)" style="rounded=0;whiteSpace=wrap;html=1;dashed=1;strokeWidth=2;opacity=70;fillColor=#bac8d3;strokeColor=#23445d;" parent="1" vertex="1">
          <mxGeometry x="135" y="700" width="255" height="30" as="geometry" />
        </mxCell>
        <mxCell id="zyb1vxMaMhKt3eVz_rQT-71" style="edgeStyle=orthogonalEdgeStyle;rounded=0;orthogonalLoop=1;jettySize=auto;html=1;exitX=0.25;exitY=1;exitDx=0;exitDy=0;entryX=0.09;entryY=-0.167;entryDx=0;entryDy=0;entryPerimeter=0;" parent="1" source="zyb1vxMaMhKt3eVz_rQT-62" target="zyb1vxMaMhKt3eVz_rQT-65" edge="1">
          <mxGeometry relative="1" as="geometry" />
        </mxCell>
        <mxCell id="zyb1vxMaMhKt3eVz_rQT-62" value="AXIS(64Byte)" style="rounded=0;whiteSpace=wrap;html=1;fillColor=#e3c800;strokeColor=#B09500;fontColor=#000000;dashed=1;strokeWidth=2;opacity=60;" parent="1" vertex="1">
          <mxGeometry x="135" y="810" width="75" height="30" as="geometry" />
        </mxCell>
        <mxCell id="zyb1vxMaMhKt3eVz_rQT-69" style="edgeStyle=orthogonalEdgeStyle;rounded=0;orthogonalLoop=1;jettySize=auto;html=1;exitX=0.25;exitY=1;exitDx=0;exitDy=0;" parent="1" source="zyb1vxMaMhKt3eVz_rQT-63" target="zyb1vxMaMhKt3eVz_rQT-67" edge="1">
          <mxGeometry relative="1" as="geometry" />
        </mxCell>
        <mxCell id="zyb1vxMaMhKt3eVz_rQT-63" value="AXIS(64Byte)" style="rounded=0;whiteSpace=wrap;html=1;fillColor=#e3c800;strokeColor=#B09500;fontColor=#000000;dashed=1;strokeWidth=2;opacity=60;" parent="1" vertex="1">
          <mxGeometry x="210" y="810" width="75" height="30" as="geometry" />
        </mxCell>
        <mxCell id="zyb1vxMaMhKt3eVz_rQT-65" value="m_axis_h2c_tdata[95:64] =32&#39;b1 (oper=final)" style="rounded=0;whiteSpace=wrap;html=1;dashed=1;strokeWidth=2;opacity=70;fillColor=#bac8d3;strokeColor=#23445d;" parent="1" vertex="1">
          <mxGeometry x="130" y="890" width="255" height="30" as="geometry" />
        </mxCell>
        <mxCell id="zyb1vxMaMhKt3eVz_rQT-67" value="m_axis_h2c_tlast =1" style="rounded=0;whiteSpace=wrap;html=1;dashed=1;strokeWidth=2;opacity=70;fillColor=#b1ddf0;strokeColor=#10739e;" parent="1" vertex="1">
          <mxGeometry x="425" y="890" width="130" height="30" as="geometry" />
        </mxCell>
        <mxCell id="zyb1vxMaMhKt3eVz_rQT-72" value="&lt;div style=&quot;text-align: left;&quot;&gt;&lt;span style=&quot;background-color: initial;&quot;&gt;if&amp;nbsp; oper==final &amp;amp; m_axis_h2c_tlast=&#39;b1 then&lt;/span&gt;&lt;/div&gt;&lt;div style=&quot;text-align: left;&quot;&gt;&lt;span style=&quot;background-color: initial;&quot;&gt;&amp;nbsp; &amp;nbsp; &amp;nbsp; &amp;nbsp; &amp;nbsp; &amp;nbsp; &amp;nbsp; &amp;nbsp;sm3_done&lt;/span&gt;&lt;/div&gt;&lt;div style=&quot;text-align: left;&quot;&gt;&lt;span style=&quot;background-color: initial;&quot;&gt;else then&lt;/span&gt;&lt;/div&gt;&lt;div style=&quot;text-align: left;&quot;&gt;&lt;span style=&quot;background-color: initial;&quot;&gt;&amp;nbsp; &amp;nbsp; &amp;nbsp; &amp;nbsp; &amp;nbsp; &amp;nbsp; &amp;nbsp; &amp;nbsp;sm3_compute&lt;/span&gt;&lt;/div&gt;&lt;div style=&quot;text-align: left;&quot;&gt;&lt;span style=&quot;background-color: initial;&quot;&gt;fi&lt;/span&gt;&lt;/div&gt;" style="text;html=1;align=center;verticalAlign=middle;resizable=0;points=[];autosize=1;fillColor=#cdeb8b;strokeColor=#36393d;" parent="1" vertex="1">
          <mxGeometry x="540" y="770" width="250" height="90" as="geometry" />
        </mxCell>
        <mxCell id="Qdq1BPzlEt-FlzEUUW8E-1" value="QDMA&amp;nbsp; MRRS=4KB" style="text;html=1;align=center;verticalAlign=middle;resizable=0;points=[];autosize=1;strokeColor=none;fillColor=none;" vertex="1" parent="1">
          <mxGeometry x="632.5" y="470" width="130" height="30" as="geometry" />
        </mxCell>
      </root>
    </mxGraphModel>
  </diagram>
</mxfile>
